# xmcd CD database file
#
# Track frame offsets:
#	150
#	15126
#	44195
#	57311
#	71130
#	84404
#	96091
#	110124
#	124144
#	137452
#	149803
#	163356
#	189229
#	230933
#	244109
#	259031
#	272397
#	284801
#	299774
#	313415
#	327414
#	341692
#
# Disc length: 4718 seconds
#
# Revision: 0
# Processed by: cddbd v1.5.2PL0 Copyright (c) Steve Scherf et al.
# Submitted via: CDex 1.70beta2
#
DISCID=6c126c16
DTITLE=Erroll Garner - Cherchez la femme
DYEAR=2005
DGENRE=Jazz
TTITLE0=Boogie Woogie Boogie
TTITLE1=He Pulled a Fast One
TTITLE2=Twistin' Tha Cat'sTail
TTITLE3=Play, Fiddle, Play
TTITLE4=Jumpin' At the Deuces
TTITLE5=Indiana
TTITLE6=Memories of You
TTITLE7=Trio
TTITLE8=Pastel
TTITLE9=Bird's Nest
TTITLE10=Erroll's Bounce
TTITLE11=Lover
TTITLE12=Blue Lou
TTITLE13=Frankie And Johnny Fantasy
TTITLE14=Play, Piano, Play
TTITLE15=Loose Nut
TTITLE16=Cherchez La Femme
TTITLE17=Lover Man
TTITLE18=Early In Paris
TTITLE19=Just You, Just Me
TTITLE20=Stompin' At the Savoy
TTITLE21=Undecided
EXTD=YEAR: 2005
EXTT0=
EXTT1=
EXTT2=
EXTT3=
EXTT4=
EXTT5=
EXTT6=
EXTT7=
EXTT8=
EXTT9=
EXTT10=
EXTT11=
EXTT12=
EXTT13=
EXTT14=
EXTT15=
EXTT16=
EXTT17=
EXTT18=
EXTT19=
EXTT20=
EXTT21=
PLAYORDER=
